<?xml version="1.0" standalone="no"?>
<!DOCTYPE svg PUBLIC "-//W3C//DTD SVG 20010904//EN"
 "http://www.w3.org/TR/2001/REC-SVG-20010904/DTD/svg10.dtd">
<svg version="1.0" xmlns="http://www.w3.org/2000/svg"
 width="1024.000000pt" height="1024.000000pt" viewBox="0 0 1024.000000 1024.000000"
 preserveAspectRatio="xMidYMid meet">
<metadata>
Created by potrace 1.11, written by Peter Selinger 2001-2013
</metadata>
<g transform="translate(0.000000,1024.000000) scale(0.100000,-0.100000)"
fill="#000000" stroke="none">
<path d="M2195 7793 c-184 -26 -389 -124 -528 -253 -123 -113 -230 -292 -279
-465 l-22 -80 -3 -1034 c-4 -1113 -4 -1121 48 -1273 103 -304 358 -540 674
-625 99 -26 105 -26 488 -31 l387 -4 0 -338 c0 -186 5 -374 10 -417 57 -425
375 -755 798 -828 77 -13 350 -15 2202 -12 l2115 3 80 23 c216 62 402 186 527
351 62 81 140 240 170 345 l22 80 3 1034 c4 1113 4 1121 -48 1273 -103 304
-358 540 -674 625 -99 26 -105 26 -487 31 l-388 4 0 338 c0 186 -5 374 -10
417 -57 424 -374 754 -796 828 -76 13 -353 15 -2173 14 -1147 -1 -2099 -4
-2116 -6z m4345 -181 c231 -72 417 -232 514 -444 66 -145 69 -163 73 -585 l5
-382 -1674 -4 -1673 -3 -80 -21 c-241 -65 -439 -202 -575 -398 -65 -95 -105
-183 -138 -305 l-26 -95 -4 -593 -3 -594 -377 4 c-349 4 -383 6 -457 27 -284
77 -489 278 -577 563 l-23 73 -3 1025 c-3 1126 -4 1098 57 1256 76 195 262
379 454 449 158 57 24 54 2317 52 l2115 -2 75 -23z m588 -2072 c3 -538 -4
-664 -43 -788 -78 -244 -273 -439 -517 -517 -44 -14 -126 -29 -190 -35 -76 -7
-631 -10 -1683 -8 l-1570 3 0 575 c0 565 0 576 23 660 87 326 355 561 684 599
40 5 798 8 1683 7 l1610 -1 3 -495z m997 471 c284 -77 489 -278 577 -563 l23
-73 3 -1025 c3 -1126 4 -1098 -57 -1256 -75 -193 -252 -370 -445 -445 -164
-63 -20 -60 -2336 -57 l-2105 3 -75 23 c-233 72 -417 231 -514 444 -66 145
-69 163 -73 585 l-5 382 1674 4 1673 3 80 21 c241 65 439 202 574 397 64 93
106 184 139 306 l26 95 4 593 3 594 377 -4 c349 -4 383 -6 457 -27z"/>
</g>
</svg>
